<?xml version="1.0" encoding="UTF-8" standalone="no"?><svg xmlns="http://www.w3.org/2000/svg" xmlns:xlink="http://www.w3.org/1999/xlink" contentScriptType="application/ecmascript" contentStyleType="text/css" height="256px" preserveAspectRatio="none" style="width:164px;height:256px;" version="1.1" viewBox="0 0 164 256" width="164px" zoomAndPan="magnify"><defs><filter height="300%" id="fl1tb18cnxe1q" width="300%" x="-1" y="-1"><feGaussianBlur result="blurOut" stdDeviation="2.0"/><feColorMatrix in="blurOut" result="blurOut2" type="matrix" values="0 0 0 0 0 0 0 0 0 0 0 0 0 0 0 0 0 0 .4 0"/><feOffset dx="4.0" dy="4.0" in="blurOut2" result="blurOut3"/><feBlend in="SourceGraphic" in2="blurOut3" mode="normal"/></filter></defs><g><!--class 0--><a target="_top" xlink:actuate="onRequest" xlink:href="http://bigcat.unimaas.nl/lipids" xlink:show="new" xlink:title="http://bigcat.unimaas.nl/lipids" xlink:type="simple"><rect fill="#FEFECE" filter="url(#fl1tb18cnxe1q)" height="102.4141" id="0" style="stroke: #A80036; stroke-width: 1.5;" width="100" x="30.5" y="8"/><ellipse cx="59.9" cy="24" fill="#FF7700" rx="11" ry="11" style="stroke: #A80036; stroke-width: 1.0;"/><path d="M59.3844,24.5625 Q57.525,23.8594 56.8766,23.0859 Q56.2281,22.3125 56.2281,21 Q56.2281,19.3125 57.3063,18.3438 Q58.3844,17.375 60.2594,17.375 Q61.1188,17.375 61.9703,17.5703 Q62.8219,17.7656 63.6656,18.1563 L63.6656,20.5469 Q62.8844,19.9844 62.0641,19.6953 Q61.2438,19.4063 60.4469,19.4063 Q59.5719,19.4063 59.0953,19.7656 Q58.6188,20.125 58.6188,20.7813 Q58.6188,21.2969 58.9625,21.6328 Q59.3063,21.9688 60.4,22.375 L61.4625,22.7813 Q62.9469,23.3281 63.6578,24.2344 Q64.3688,25.1406 64.3688,26.5156 Q64.3688,28.3906 63.2594,29.3125 Q62.15,30.2344 59.9,30.2344 Q58.9781,30.2344 58.0563,30.0156 Q57.1344,29.7969 56.275,29.375 L56.275,26.8438 Q57.2438,27.5313 58.1656,27.875 Q59.0875,28.2188 59.9781,28.2188 Q60.8844,28.2188 61.3844,27.8047 Q61.8844,27.3906 61.8844,26.6563 Q61.8844,26.0938 61.5484,25.6797 Q61.2125,25.2656 60.5875,25.0156 L59.3844,24.5625 Z "/><text fill="#000000" font-family="sans-serif" font-size="12" lengthAdjust="spacingAndGlyphs" textLength="36" x="77.1" y="28.1543">:lipids</text><line style="stroke: #A80036; stroke-width: 1.5;" x1="31.5" x2="129.5" y1="40" y2="40"/></a><a target="_top" xlink:actuate="onRequest" xlink:href="http://www.wikidata.org/prop/direct/P2063" xlink:show="new" xlink:title="http://www.wikidata.org/prop/direct/P2063" xlink:type="simple"><text fill="#0000FF" font-family="sans-serif" font-size="11" lengthAdjust="spacingAndGlyphs" text-decoration="underline" textLength="59" x="36.5" y="54.2104">wdt:P2063</text><line style="stroke: #0000FF; stroke-width: 1.0;" x1="36.5" x2="95.5" y1="56.2104" y2="56.2104"/></a><text fill="#000000" font-family="sans-serif" font-size="11" lengthAdjust="spacingAndGlyphs" textLength="25" x="99.5" y="54.2104">: . +</text><line style="stroke: #A80036; stroke-width: 1.0;" x1="31.5" x2="129.5" y1="60.8047" y2="60.8047"/><a target="_top" xlink:actuate="onRequest" xlink:href="http://www.wikidata.org/prop/direct/P234" xlink:show="new" xlink:title="http://www.wikidata.org/prop/direct/P234" xlink:type="simple"><text fill="#0000FF" font-family="sans-serif" font-size="11" lengthAdjust="spacingAndGlyphs" text-decoration="underline" textLength="52" x="36.5" y="75.0151">wdt:P234</text><line style="stroke: #0000FF; stroke-width: 1.0;" x1="36.5" x2="88.5" y1="77.0151" y2="77.0151"/></a><text fill="#000000" font-family="sans-serif" font-size="11" lengthAdjust="spacingAndGlyphs" textLength="25" x="92.5" y="75.0151">: . +</text><line style="stroke: #A80036; stroke-width: 1.0;" x1="31.5" x2="129.5" y1="81.6094" y2="81.6094"/><a target="_top" xlink:actuate="onRequest" xlink:href="http://www.wikidata.org/prop/direct/P235" xlink:show="new" xlink:title="http://www.wikidata.org/prop/direct/P235" xlink:type="simple"><text fill="#0000FF" font-family="sans-serif" font-size="11" lengthAdjust="spacingAndGlyphs" text-decoration="underline" textLength="52" x="36.5" y="95.8198">wdt:P235</text><line style="stroke: #0000FF; stroke-width: 1.0;" x1="36.5" x2="88.5" y1="97.8198" y2="97.8198"/></a><text fill="#000000" font-family="sans-serif" font-size="11" lengthAdjust="spacingAndGlyphs" textLength="25" x="92.5" y="95.8198">: . +</text><line style="stroke: #A80036; stroke-width: 1.0;" x1="31.5" x2="129.5" y1="102.4141" y2="102.4141"/><!--class 1--><a target="_top" xlink:actuate="onRequest" xlink:href="http://bigcat.unimaas.nl/taxon" xlink:show="new" xlink:title="http://bigcat.unimaas.nl/taxon" xlink:type="simple"><rect fill="#FEFECE" filter="url(#fl1tb18cnxe1q)" height="60.8047" id="1" style="stroke: #A80036; stroke-width: 1.5;" width="149" x="6" y="187"/><ellipse cx="56.75" cy="203" fill="#FF7700" rx="11" ry="11" style="stroke: #A80036; stroke-width: 1.0;"/><path d="M56.2344,203.5625 Q54.375,202.8594 53.7266,202.0859 Q53.0781,201.3125 53.0781,200 Q53.0781,198.3125 54.1563,197.3438 Q55.2344,196.375 57.1094,196.375 Q57.9688,196.375 58.8203,196.5703 Q59.6719,196.7656 60.5156,197.1563 L60.5156,199.5469 Q59.7344,198.9844 58.9141,198.6953 Q58.0938,198.4063 57.2969,198.4063 Q56.4219,198.4063 55.9453,198.7656 Q55.4688,199.125 55.4688,199.7813 Q55.4688,200.2969 55.8125,200.6328 Q56.1563,200.9688 57.25,201.375 L58.3125,201.7813 Q59.7969,202.3281 60.5078,203.2344 Q61.2188,204.1406 61.2188,205.5156 Q61.2188,207.3906 60.1094,208.3125 Q59,209.2344 56.75,209.2344 Q55.8281,209.2344 54.9063,209.0156 Q53.9844,208.7969 53.125,208.375 L53.125,205.8438 Q54.0938,206.5313 55.0156,206.875 Q55.9375,207.2188 56.8281,207.2188 Q57.7344,207.2188 58.2344,206.8047 Q58.7344,206.3906 58.7344,205.6563 Q58.7344,205.0938 58.3984,204.6797 Q58.0625,204.2656 57.4375,204.0156 L56.2344,203.5625 Z "/><text fill="#000000" font-family="sans-serif" font-size="12" lengthAdjust="spacingAndGlyphs" textLength="39" x="77.25" y="207.1543">:taxon</text><line style="stroke: #A80036; stroke-width: 1.5;" x1="7" x2="154" y1="219" y2="219"/></a><a target="_top" xlink:actuate="onRequest" xlink:href="http://www.wikidata.org/prop/direct/P31" xlink:show="new" xlink:title="http://www.wikidata.org/prop/direct/P31" xlink:type="simple"><text fill="#0000FF" font-family="sans-serif" font-size="11" lengthAdjust="spacingAndGlyphs" text-decoration="underline" textLength="45" x="12" y="233.2104">wdt:P31</text><line style="stroke: #0000FF; stroke-width: 1.0;" x1="12" x2="57" y1="235.2104" y2="235.2104"/></a><text fill="#000000" font-family="sans-serif" font-size="11" lengthAdjust="spacingAndGlyphs" textLength="12" x="61" y="233.2104">: [</text><a target="_top" xlink:actuate="onRequest" xlink:href="http://www.wikidata.org/entity/Q16521" xlink:show="new" xlink:title="http://www.wikidata.org/entity/Q16521" xlink:type="simple"><text fill="#0000FF" font-family="sans-serif" font-size="11" lengthAdjust="spacingAndGlyphs" text-decoration="underline" textLength="64" x="77" y="233.2104">wd:Q16521</text><line style="stroke: #0000FF; stroke-width: 1.0;" x1="77" x2="141" y1="235.2104" y2="235.2104"/></a><text fill="#000000" font-family="sans-serif" font-size="11" lengthAdjust="spacingAndGlyphs" textLength="4" x="145" y="233.2104">]</text><line style="stroke: #A80036; stroke-width: 1.0;" x1="7" x2="154" y1="239.8047" y2="239.8047"/><!--link 0 to 1--><path d="M80.5,110.379 C80.5,133.609 80.5,160.6077 80.5,181.5595 " fill="none" id="0-1" style="stroke: #A80036; stroke-width: 1.0;"/><polygon fill="#A80036" points="80.5,186.75,84.5,177.75,80.5,181.75,76.5,177.75,80.5,186.75" style="stroke: #A80036; stroke-width: 1.0;"/><a target="_top" xlink:actuate="onRequest" xlink:href="http://www.wikidata.org/prop/direct/P703" xlink:show="new" xlink:title="http://www.wikidata.org/prop/direct/P703" xlink:type="simple"><text fill="#0000FF" font-family="sans-serif" font-size="13" lengthAdjust="spacingAndGlyphs" text-decoration="underline" textLength="58" x="81.5" y="153.0669">wdt:P703</text><line style="stroke: #0000FF; stroke-width: 1.0;" x1="81.5" x2="139.5" y1="155.0669" y2="155.0669"/></a><text fill="#000000" font-family="sans-serif" font-size="13" lengthAdjust="spacingAndGlyphs" textLength="11" x="68.3656" y="175.9617">+</text><!--\n@startuml\r\nclass ":lipids" as 0 <<(S,#FF7700)>> [[http://bigcat.unimaas.nl/lipids :lipids]] {\r\n[[http://www.wikidata.org/prop/direct/P2063 wdt:P2063]] : . +\r\n- -\r\n[[http://www.wikidata.org/prop/direct/P234 wdt:P234]] : . +\r\n- -\r\n[[http://www.wikidata.org/prop/direct/P235 wdt:P235]] : . +\r\n- -\r\n}\r\nclass ":taxon" as 1 <<(S,#FF7700)>> [[http://bigcat.unimaas.nl/taxon :taxon]] {\r\n[[http://www.wikidata.org/prop/direct/P31 wdt:P31]] : [ [[http://www.wikidata.org/entity/Q16521 wd:Q16521]] ]  \r\n- -\r\n}\r\n0 - -> "+" 1 : [[http://www.wikidata.org/prop/direct/P703 wdt:P703]]\r\n@enduml\r\n\nPlantUML version 1.2017.12(Wed Apr 26 16:06:36 UTC 2017)\n(GPL source distribution)\nJava Runtime: OpenJDK Runtime Environment\nJVM: OpenJDK 64-Bit Server VM\nJava Version: 1.8.0_181-heroku-b13\nOperating System: Linux\nOS Version: 4.4.0-1097-aws\nDefault Encoding: ANSI_X3.4-1968\nLanguage: en\nCountry: US\n--></g></svg>